<?xml version="1.0" encoding="UTF-8" standalone="no"?><svg xmlns="http://www.w3.org/2000/svg" xmlns:xlink="http://www.w3.org/1999/xlink" contentScriptType="application/ecmascript" contentStyleType="text/css" height="264px" preserveAspectRatio="none" style="width:535px;height:264px;" version="1.1" viewBox="0 0 535 264" width="535px" zoomAndPan="magnify"><defs><filter height="300%" id="f15h44l3cjhubn" width="300%" x="-1" y="-1"><feGaussianBlur result="blurOut" stdDeviation="2.0"/><feColorMatrix in="blurOut" result="blurOut2" type="matrix" values="0 0 0 0 0 0 0 0 0 0 0 0 0 0 0 0 0 0 .4 0"/><feOffset dx="4.0" dy="4.0" in="blurOut2" result="blurOut3"/><feBlend in="SourceGraphic" in2="blurOut3" mode="normal"/></filter></defs><g><!--class kayttaja--><rect fill="#FEFECE" filter="url(#f15h44l3cjhubn)" height="99.2188" id="kayttaja" style="stroke: #A80036; stroke-width: 1.5;" width="136" x="22" y="8"/><ellipse cx="61.3" cy="24" fill="#ADD1B2" rx="11" ry="11" style="stroke: #A80036; stroke-width: 1.0;"/><path d="M64.2688,29.6406 Q63.6906,29.9375 63.05,30.0781 Q62.4094,30.2344 61.7063,30.2344 Q59.2063,30.2344 57.8781,28.5938 Q56.5656,26.9375 56.5656,23.8125 Q56.5656,20.6875 57.8781,19.0313 Q59.2063,17.375 61.7063,17.375 Q62.4094,17.375 63.05,17.5313 Q63.7063,17.6875 64.2688,17.9844 L64.2688,20.7031 Q63.6438,20.125 63.05,19.8594 Q62.4563,19.5781 61.8313,19.5781 Q60.4875,19.5781 59.8,20.6563 Q59.1125,21.7188 59.1125,23.8125 Q59.1125,25.9063 59.8,26.9844 Q60.4875,28.0469 61.8313,28.0469 Q62.4563,28.0469 63.05,27.7813 Q63.6438,27.5 64.2688,26.9219 L64.2688,29.6406 Z "/><text fill="#000000" font-family="sans-serif" font-size="12" lengthAdjust="spacingAndGlyphs" textLength="50" x="80.7" y="28.1543">kayttaja</text><line style="stroke: #A80036; stroke-width: 1.5;" x1="23" x2="157" y1="40" y2="40"/><text fill="#000000" font-family="sans-serif" font-size="11" lengthAdjust="spacingAndGlyphs" textLength="65" x="28" y="54.2104">nimi: String</text><text fill="#000000" font-family="sans-serif" font-size="11" lengthAdjust="spacingAndGlyphs" textLength="124" x="28" y="67.0151">kayttajatunnus: String</text><text fill="#000000" font-family="sans-serif" font-size="11" lengthAdjust="spacingAndGlyphs" textLength="93" x="28" y="79.8198">salasana: String</text><line style="stroke: #A80036; stroke-width: 1.5;" x1="23" x2="157" y1="86.4141" y2="86.4141"/><text fill="#000000" font-family="sans-serif" font-size="11" lengthAdjust="spacingAndGlyphs" textLength="81" x="28" y="100.6245">(pk) id: Integer</text><!--class tuote--><rect fill="#FEFECE" filter="url(#f15h44l3cjhubn)" height="86.4141" id="tuote" style="stroke: #A80036; stroke-width: 1.5;" width="162" x="362" y="14.5"/><ellipse cx="421.75" cy="30.5" fill="#ADD1B2" rx="11" ry="11" style="stroke: #A80036; stroke-width: 1.0;"/><path d="M424.7188,36.1406 Q424.1406,36.4375 423.5,36.5781 Q422.8594,36.7344 422.1563,36.7344 Q419.6563,36.7344 418.3281,35.0938 Q417.0156,33.4375 417.0156,30.3125 Q417.0156,27.1875 418.3281,25.5313 Q419.6563,23.875 422.1563,23.875 Q422.8594,23.875 423.5,24.0313 Q424.1563,24.1875 424.7188,24.4844 L424.7188,27.2031 Q424.0938,26.625 423.5,26.3594 Q422.9063,26.0781 422.2813,26.0781 Q420.9375,26.0781 420.25,27.1563 Q419.5625,28.2188 419.5625,30.3125 Q419.5625,32.4063 420.25,33.4844 Q420.9375,34.5469 422.2813,34.5469 Q422.9063,34.5469 423.5,34.2813 Q424.0938,34 424.7188,33.4219 L424.7188,36.1406 Z "/><text fill="#000000" font-family="sans-serif" font-size="12" lengthAdjust="spacingAndGlyphs" textLength="34" x="442.25" y="34.6543">tuote</text><line style="stroke: #A80036; stroke-width: 1.5;" x1="363" x2="523" y1="46.5" y2="46.5"/><text fill="#000000" font-family="sans-serif" font-size="11" lengthAdjust="spacingAndGlyphs" textLength="65" x="368" y="60.7104">nimi: String</text><line style="stroke: #A80036; stroke-width: 1.5;" x1="363" x2="523" y1="67.3047" y2="67.3047"/><text fill="#000000" font-family="sans-serif" font-size="11" lengthAdjust="spacingAndGlyphs" textLength="81" x="368" y="81.5151">(pk) id: Integer</text><text fill="#000000" font-family="sans-serif" font-size="11" lengthAdjust="spacingAndGlyphs" textLength="150" x="368" y="94.3198">(fk) kategoria_id: kategoria</text><!--class kategoria--><rect fill="#FEFECE" filter="url(#f15h44l3cjhubn)" height="73.6094" id="kategoria" style="stroke: #A80036; stroke-width: 1.5;" width="93" x="411.5" y="173"/><ellipse cx="426.95" cy="189" fill="#ADD1B2" rx="11" ry="11" style="stroke: #A80036; stroke-width: 1.0;"/><path d="M429.9188,194.6406 Q429.3406,194.9375 428.7,195.0781 Q428.0594,195.2344 427.3563,195.2344 Q424.8563,195.2344 423.5281,193.5938 Q422.2156,191.9375 422.2156,188.8125 Q422.2156,185.6875 423.5281,184.0313 Q424.8563,182.375 427.3563,182.375 Q428.0594,182.375 428.7,182.5313 Q429.3563,182.6875 429.9188,182.9844 L429.9188,185.7031 Q429.2938,185.125 428.7,184.8594 Q428.1063,184.5781 427.4813,184.5781 Q426.1375,184.5781 425.45,185.6563 Q424.7625,186.7188 424.7625,188.8125 Q424.7625,190.9063 425.45,191.9844 Q426.1375,193.0469 427.4813,193.0469 Q428.1063,193.0469 428.7,192.7813 Q429.2938,192.5 429.9188,191.9219 L429.9188,194.6406 Z "/><text fill="#000000" font-family="sans-serif" font-size="12" lengthAdjust="spacingAndGlyphs" textLength="60" x="441.05" y="193.1543">kategoria</text><line style="stroke: #A80036; stroke-width: 1.5;" x1="412.5" x2="503.5" y1="205" y2="205"/><text fill="#000000" font-family="sans-serif" font-size="11" lengthAdjust="spacingAndGlyphs" textLength="65" x="417.5" y="219.2104">nimi: String</text><line style="stroke: #A80036; stroke-width: 1.5;" x1="412.5" x2="503.5" y1="225.8047" y2="225.8047"/><text fill="#000000" font-family="sans-serif" font-size="11" lengthAdjust="spacingAndGlyphs" textLength="81" x="417.5" y="240.0151">(pk) id: Integer</text><!--class ostoslista--><rect fill="#FEFECE" filter="url(#f15h44l3cjhubn)" height="86.4141" id="ostoslista" style="stroke: #A80036; stroke-width: 1.5;" width="93" x="219.5" y="14.5"/><ellipse cx="234.5" cy="30.5" fill="#ADD1B2" rx="11" ry="11" style="stroke: #A80036; stroke-width: 1.0;"/><path d="M237.4688,36.1406 Q236.8906,36.4375 236.25,36.5781 Q235.6094,36.7344 234.9063,36.7344 Q232.4063,36.7344 231.0781,35.0938 Q229.7656,33.4375 229.7656,30.3125 Q229.7656,27.1875 231.0781,25.5313 Q232.4063,23.875 234.9063,23.875 Q235.6094,23.875 236.25,24.0313 Q236.9063,24.1875 237.4688,24.4844 L237.4688,27.2031 Q236.8438,26.625 236.25,26.3594 Q235.6563,26.0781 235.0313,26.0781 Q233.6875,26.0781 233,27.1563 Q232.3125,28.2188 232.3125,30.3125 Q232.3125,32.4063 233,33.4844 Q233.6875,34.5469 235.0313,34.5469 Q235.6563,34.5469 236.25,34.2813 Q236.8438,34 237.4688,33.4219 L237.4688,36.1406 Z "/><text fill="#000000" font-family="sans-serif" font-size="12" lengthAdjust="spacingAndGlyphs" textLength="61" x="248.5" y="34.6543">ostoslista</text><line style="stroke: #A80036; stroke-width: 1.5;" x1="220.5" x2="311.5" y1="46.5" y2="46.5"/><text fill="#000000" font-family="sans-serif" font-size="11" lengthAdjust="spacingAndGlyphs" textLength="65" x="225.5" y="60.7104">nimi: String</text><text fill="#000000" font-family="sans-serif" font-size="11" lengthAdjust="spacingAndGlyphs" textLength="57" x="225.5" y="73.5151">pvm: Date</text><line style="stroke: #A80036; stroke-width: 1.5;" x1="220.5" x2="311.5" y1="80.1094" y2="80.1094"/><text fill="#000000" font-family="sans-serif" font-size="11" lengthAdjust="spacingAndGlyphs" textLength="81" x="225.5" y="94.3198">(pk) id: Integer</text><!--class kayttajaOstoslista--><rect fill="#FEFECE" filter="url(#f15h44l3cjhubn)" height="73.6094" id="kayttajaOstoslista" style="stroke: #A80036; stroke-width: 1.5;" width="168" x="6" y="173"/><ellipse cx="31.8" cy="189" fill="#ADD1B2" rx="11" ry="11" style="stroke: #A80036; stroke-width: 1.0;"/><path d="M34.7688,194.6406 Q34.1906,194.9375 33.55,195.0781 Q32.9094,195.2344 32.2063,195.2344 Q29.7063,195.2344 28.3781,193.5938 Q27.0656,191.9375 27.0656,188.8125 Q27.0656,185.6875 28.3781,184.0313 Q29.7063,182.375 32.2063,182.375 Q32.9094,182.375 33.55,182.5313 Q34.2063,182.6875 34.7688,182.9844 L34.7688,185.7031 Q34.1438,185.125 33.55,184.8594 Q32.9563,184.5781 32.3313,184.5781 Q30.9875,184.5781 30.3,185.6563 Q29.6125,186.7188 29.6125,188.8125 Q29.6125,190.9063 30.3,191.9844 Q30.9875,193.0469 32.3313,193.0469 Q32.9563,193.0469 33.55,192.7813 Q34.1438,192.5 34.7688,191.9219 L34.7688,194.6406 Z "/><text fill="#000000" font-family="sans-serif" font-size="12" lengthAdjust="spacingAndGlyphs" textLength="112" x="48.2" y="193.1543">kayttajaOstoslista</text><line style="stroke: #A80036; stroke-width: 1.5;" x1="7" x2="173" y1="205" y2="205"/><line style="stroke: #A80036; stroke-width: 1.5;" x1="7" x2="173" y1="213" y2="213"/><text fill="#000000" font-family="sans-serif" font-size="11" lengthAdjust="spacingAndGlyphs" textLength="132" x="12" y="227.2104">(fk) kayttaja_id: kayttaja</text><text fill="#000000" font-family="sans-serif" font-size="11" lengthAdjust="spacingAndGlyphs" textLength="156" x="12" y="240.0151">(fk) ostoslista_id: ostoslista</text><!--class ostoslistaTuote--><rect fill="#FEFECE" filter="url(#f15h44l3cjhubn)" height="86.4141" id="ostoslistaTuote" style="stroke: #A80036; stroke-width: 1.5;" width="168" x="209" y="167"/><ellipse cx="241.55" cy="183" fill="#ADD1B2" rx="11" ry="11" style="stroke: #A80036; stroke-width: 1.0;"/><path d="M244.5188,188.6406 Q243.9406,188.9375 243.3,189.0781 Q242.6594,189.2344 241.9563,189.2344 Q239.4563,189.2344 238.1281,187.5938 Q236.8156,185.9375 236.8156,182.8125 Q236.8156,179.6875 238.1281,178.0313 Q239.4563,176.375 241.9563,176.375 Q242.6594,176.375 243.3,176.5313 Q243.9563,176.6875 244.5188,176.9844 L244.5188,179.7031 Q243.8938,179.125 243.3,178.8594 Q242.7063,178.5781 242.0813,178.5781 Q240.7375,178.5781 240.05,179.6563 Q239.3625,180.7188 239.3625,182.8125 Q239.3625,184.9063 240.05,185.9844 Q240.7375,187.0469 242.0813,187.0469 Q242.7063,187.0469 243.3,186.7813 Q243.8938,186.5 244.5188,185.9219 L244.5188,188.6406 Z "/><text fill="#000000" font-family="sans-serif" font-size="12" lengthAdjust="spacingAndGlyphs" textLength="97" x="259.45" y="187.1543">ostoslistaTuote</text><line style="stroke: #A80036; stroke-width: 1.5;" x1="210" x2="376" y1="199" y2="199"/><text fill="#000000" font-family="sans-serif" font-size="11" lengthAdjust="spacingAndGlyphs" textLength="84" x="215" y="213.2104">maara: Integer</text><line style="stroke: #A80036; stroke-width: 1.5;" x1="210" x2="376" y1="219.8047" y2="219.8047"/><text fill="#000000" font-family="sans-serif" font-size="11" lengthAdjust="spacingAndGlyphs" textLength="156" x="215" y="234.0151">(fk) ostoslista_id: ostoslista</text><text fill="#000000" font-family="sans-serif" font-size="11" lengthAdjust="spacingAndGlyphs" textLength="102" x="215" y="246.8198">(fk) tuote_id: tuote</text><!--link tuote to kategoria--><path d="M447.22,100.82 C449.47,123.43 452.22,150.97 454.37,172.61 " fill="none" id="tuote-kategoria" style="stroke: #A80036; stroke-width: 1.0;"/><text fill="#000000" font-family="sans-serif" font-size="13" lengthAdjust="spacingAndGlyphs" textLength="7" x="440.3348" y="120.9639">*</text><text fill="#000000" font-family="sans-serif" font-size="13" lengthAdjust="spacingAndGlyphs" textLength="8" x="445.0586" y="162.0064">1</text><!--link kayttaja to kayttajaOstoslista--><path d="M90,107.36 C90,128.65 90,153.16 90,172.78 " fill="none" id="kayttaja-kayttajaOstoslista" style="stroke: #A80036; stroke-width: 1.0;"/><text fill="#000000" font-family="sans-serif" font-size="13" lengthAdjust="spacingAndGlyphs" textLength="8" x="81.4625" y="127.1289">1</text><text fill="#000000" font-family="sans-serif" font-size="13" lengthAdjust="spacingAndGlyphs" textLength="7" x="82.3766" y="161.9278">*</text><!--link ostoslista to kayttajaOstoslista--><path d="M219.3,98.44 C192.21,121.6 158.37,150.54 132.1,173 " fill="none" id="ostoslista-kayttajaOstoslista" style="stroke: #A80036; stroke-width: 1.0;"/><text fill="#000000" font-family="sans-serif" font-size="13" lengthAdjust="spacingAndGlyphs" textLength="8" x="203.5366" y="100.6059">1</text><text fill="#000000" font-family="sans-serif" font-size="13" lengthAdjust="spacingAndGlyphs" textLength="7" x="132.2169" y="161.9105">*</text><!--link ostoslista to ostoslistaTuote--><path d="M273.59,100.82 C277.31,121.52 281.76,146.35 285.46,166.99 " fill="none" id="ostoslista-ostoslistaTuote" style="stroke: #A80036; stroke-width: 1.0;"/><text fill="#000000" font-family="sans-serif" font-size="13" lengthAdjust="spacingAndGlyphs" textLength="8" x="266.1622" y="120.9639">1</text><text fill="#000000" font-family="sans-serif" font-size="13" lengthAdjust="spacingAndGlyphs" textLength="7" x="276.7005" y="155.9845">*</text><!--link tuote to ostoslistaTuote--><path d="M400.82,100.82 C380.19,121.52 355.45,146.35 334.87,166.99 " fill="none" id="tuote-ostoslistaTuote" style="stroke: #A80036; stroke-width: 1.0;"/><text fill="#000000" font-family="sans-serif" font-size="13" lengthAdjust="spacingAndGlyphs" textLength="8" x="385.4601" y="120.9639">1</text><text fill="#000000" font-family="sans-serif" font-size="13" lengthAdjust="spacingAndGlyphs" textLength="7" x="333.9852" y="155.9845">*</text><!--
@startuml
class kayttaja {
    (pk) id: Integer
    nimi: String
    kayttajatunnus: String
    salasana: String
}

class tuote {
    (pk) id: Integer
    (fk) kategoria_id: kategoria
    nimi: String
}

class kategoria {
    (pk) id: Integer
    nimi: String
}

class ostoslista {
    (pk) id: Integer
    nimi: String
    pvm: Date
}

class kayttajaOstoslista {
    (fk) kayttaja_id: kayttaja
    (fk) ostoslista_id: ostoslista
}

class ostoslistaTuote {
    (fk) ostoslista_id: ostoslista
    (fk) tuote_id: tuote
    maara: Integer
}

tuote "*" - - "1" kategoria
kayttaja "1" - - "*" kayttajaOstoslista
ostoslista "1" - - "*" kayttajaOstoslista
ostoslista "1" - - "*" ostoslistaTuote
tuote "1" - - "*" ostoslistaTuote

@endum

PlantUML version 1.2019.09(Mon Aug 26 19:19:51 EEST 2019)
(GPL source distribution)
Java Runtime: OpenJDK Runtime Environment
JVM: OpenJDK 64-Bit Server VM
Java Version: 1.8.0_242-b08
Operating System: Linux
OS Version: 5.5.18-3-MANJARO
Default Encoding: UTF-8
Language: en
Country: US
--></g></svg>